<svg version="1.1" id="Layer_1" xmlns="http://www.w3.org/2000/svg" xmlns:xlink="http://www.w3.org/1999/xlink" x="0px" y="0px"
	 width="100%" viewBox="0 0 512 512" enable-background="new 0 0 512 512" xml:space="preserve">
<path fill="#C9CACC" opacity="1.000000" stroke="none" 
	d="
M225.000000,0.999997 
	C246.020889,1.000000 267.041779,1.000000 288.193115,1.335186 
	C293.660950,2.779937 298.972168,4.040860 304.340546,4.971931 
	C323.876617,8.360187 342.724365,14.167502 360.677582,22.407953 
	C394.422546,37.896770 424.174377,58.900898 448.774353,87.085785 
	C461.278412,101.412109 472.404968,116.631302 481.517944,133.206665 
	C496.948425,161.272812 507.420380,191.093613 511.079529,223.102966 
	C511.159149,223.799393 512.335327,224.370453 513.000000,225.000000 
	C513.000000,246.020889 513.000000,267.041779 512.663452,288.195557 
	C511.894775,288.996399 511.202759,289.616882 511.070496,290.339752 
	C509.669769,297.994141 508.471741,305.686707 507.001495,313.327118 
	C501.714661,340.801483 490.724060,366.161255 476.341522,389.850128 
	C462.983276,411.851959 446.679413,431.650757 427.037537,448.673584 
	C412.699097,461.100128 397.588837,472.299377 381.014984,481.393188 
	C352.850098,496.846771 323.006287,507.467316 290.887146,511.079742 
	C290.194855,511.157562 289.626282,512.335327 289.000000,513.000000 
	C267.979095,513.000000 246.958206,513.000000 225.804474,512.663513 
	C222.588104,511.554688 219.545181,510.483521 216.414505,510.058136 
	C194.942123,507.140533 174.387665,500.931610 154.681732,492.145447 
	C119.989967,476.677643 89.672668,455.131470 64.678703,426.270538 
	C53.474331,413.332642 43.477451,399.639984 34.919056,384.805573 
	C18.056955,355.578156 6.849608,324.495605 2.920509,290.885406 
	C2.839400,290.191559 1.664585,289.625610 1.000003,289.000000 
	C1.000000,267.979095 1.000000,246.958206 1.336586,225.804382 
	C2.105190,225.004013 2.796987,224.384140 2.929246,223.661835 
	C4.329875,216.012375 5.547112,208.328735 6.994511,200.688538 
	C12.236583,173.017960 23.513376,147.654922 37.944519,123.777328 
	C51.450863,101.429901 68.071312,81.517616 87.986435,64.360153 
	C101.967262,52.315254 116.746140,41.509590 132.885330,32.665180 
	C161.098328,17.204220 190.967651,6.575298 223.114975,2.920266 
	C223.807129,2.841569 224.374435,1.664617 225.000000,0.999997 
M415.564972,271.945312 
	C414.063385,276.187714 412.573242,280.434265 411.058258,284.671875 
	C400.522766,314.140503 379.623474,333.171661 350.464325,342.946686 
	C335.886932,347.833466 320.650787,350.755341 306.182709,354.446045 
	C316.022156,365.421600 320.951477,379.336151 320.985596,395.035156 
	C321.039581,419.866150 321.000000,444.697388 321.000000,469.528503 
	C321.000000,471.294189 321.000000,473.059845 321.000000,475.439117 
	C369.152649,460.349792 407.898407,432.835266 437.173828,393.006714 
	C474.521851,342.195587 487.623169,284.854126 476.828522,222.763718 
	C467.586975,169.606842 441.522400,125.387215 400.153229,90.881279 
	C353.628448,52.075024 299.691650,34.440414 239.089508,39.069099 
	C139.166992,46.701015 44.362846,125.809601 34.345406,243.286057 
	C24.521059,358.497986 102.233681,448.438629 192.771790,473.558533 
	C192.771790,458.771545 192.771790,443.984558 192.771790,429.123169 
	C191.896866,429.078339 191.210434,428.892517 190.599808,429.034027 
	C176.393036,432.325012 162.130188,433.259888 147.790421,429.985413 
	C133.452118,426.711304 121.222809,419.833252 113.004837,407.418091 
	C108.384796,400.438416 105.019775,392.631165 101.043892,385.221130 
	C96.725807,377.173370 91.557945,369.766022 84.420502,363.924133 
	C79.373276,359.793030 73.959686,356.058258 69.257233,351.572510 
	C65.035873,347.545654 66.698547,342.745361 72.457390,342.140961 
	C77.385124,341.623810 82.694626,341.176880 87.363037,342.441803 
	C100.098236,345.892426 110.818306,352.728088 118.026672,364.221527 
	C123.918945,373.616516 130.670456,382.296875 140.526840,387.786896 
	C156.665695,396.776245 173.308029,395.502258 190.059784,389.499512 
	C192.881805,388.488281 194.589233,386.566803 194.937103,383.723602 
	C196.283386,372.720215 200.768311,363.233154 208.648422,355.265198 
	C206.920746,354.783081 205.545349,354.176636 204.123886,354.036102 
	C183.585510,352.005493 163.931564,346.815857 145.762192,336.912628 
	C125.344299,325.783844 111.271439,308.893829 103.049950,287.268219 
	C97.356384,272.292053 94.945099,256.685730 93.664772,240.646378 
	C92.720360,228.815201 93.164803,217.189697 95.310074,205.854553 
	C98.437782,189.328415 105.383476,174.166992 116.910324,161.448898 
	C117.780769,160.488495 118.279396,158.569977 118.011024,157.294601 
	C115.315880,144.486465 112.871094,131.765991 114.882736,118.491219 
	C116.369003,108.683357 118.315598,99.127525 122.655571,89.330536 
	C129.241821,90.107307 135.848068,90.351112 142.204498,91.739021 
	C159.511520,95.517952 174.614655,104.445129 189.565399,113.430717 
	C192.440948,115.158966 194.771637,115.276619 197.597473,114.832405 
	C212.036453,112.562630 226.413818,108.937675 240.923859,108.294914 
	C266.694824,107.153305 292.603607,107.013733 317.757690,114.781891 
	C319.567566,115.340820 322.268250,114.400131 324.082275,113.344696 
	C340.718628,103.665436 357.417816,94.383324 376.678925,90.560814 
	C389.058472,88.104012 391.820526,89.135803 395.515045,101.018150 
	C395.562775,101.171524 395.731140,101.288612 395.774231,101.442009 
	C401.076752,120.315948 402.471771,139.175369 395.409729,157.772171 
	C412.608948,177.037125 420.601776,199.853912 420.679596,224.906464 
	C420.727448,240.329361 417.635864,255.762009 415.564972,271.945312 
z"/>
<path fill="#000000" opacity="1.000000" stroke="none" 
	d="
M513.000000,224.531342 
	C512.335327,224.370453 511.159149,223.799393 511.079529,223.102966 
	C507.420380,191.093613 496.948425,161.272812 481.517944,133.206665 
	C472.404968,116.631302 461.278412,101.412109 448.774353,87.085785 
	C424.174377,58.900898 394.422546,37.896770 360.677582,22.407953 
	C342.724365,14.167502 323.876617,8.360187 304.340546,4.971931 
	C298.972168,4.040860 293.660950,2.779937 288.661743,1.335186 
	C363.593719,1.000000 438.187408,1.000000 513.000000,1.000000 
	C513.000000,75.354088 513.000000,149.708389 513.000000,224.531342 
z"/>
<path fill="#000000" opacity="1.000000" stroke="none" 
	d="
M289.468689,513.000000 
	C289.626282,512.335327 290.194855,511.157562 290.887146,511.079742 
	C323.006287,507.467316 352.850098,496.846771 381.014984,481.393188 
	C397.588837,472.299377 412.699097,461.100128 427.037537,448.673584 
	C446.679413,431.650757 462.983276,411.851959 476.341522,389.850128 
	C490.724060,366.161255 501.714661,340.801483 507.001495,313.327118 
	C508.471741,305.686707 509.669769,297.994141 511.070496,290.339752 
	C511.202759,289.616882 511.894775,288.996399 512.663452,288.664185 
	C513.000000,363.593719 513.000000,438.187408 513.000000,513.000000 
	C438.645905,513.000000 364.291626,513.000000 289.468689,513.000000 
z"/>
<path fill="#000000" opacity="1.000000" stroke="none" 
	d="
M1.000003,289.468658 
	C1.664585,289.625610 2.839400,290.191559 2.920509,290.885406 
	C6.849608,324.495605 18.056955,355.578156 34.919056,384.805573 
	C43.477451,399.639984 53.474331,413.332642 64.678703,426.270538 
	C89.672668,455.131470 119.989967,476.677643 154.681732,492.145447 
	C174.387665,500.931610 194.942123,507.140533 216.414505,510.058136 
	C219.545181,510.483521 222.588104,511.554688 225.335815,512.663513 
	C150.406296,513.000000 75.812599,513.000000 1.000000,513.000000 
	C1.000000,438.645905 1.000000,364.291626 1.000003,289.468658 
z"/>
<path fill="#000000" opacity="1.000000" stroke="none" 
	d="
M224.531342,0.999997 
	C224.374435,1.664617 223.807129,2.841569 223.114975,2.920266 
	C190.967651,6.575298 161.098328,17.204220 132.885330,32.665180 
	C116.746140,41.509590 101.967262,52.315254 87.986435,64.360153 
	C68.071312,81.517616 51.450863,101.429901 37.944519,123.777328 
	C23.513376,147.654922 12.236583,173.017960 6.994511,200.688538 
	C5.547112,208.328735 4.329875,216.012375 2.929246,223.661835 
	C2.796987,224.384140 2.105190,225.004013 1.336586,225.335724 
	C1.000000,150.406296 1.000000,75.812576 1.000000,1.000000 
	C75.354088,1.000000 149.708389,1.000000 224.531342,0.999997 
z"/>
<path fill="#000000" opacity="1.000000" stroke="none" 
	d="
M415.759430,271.567810 
	C417.635864,255.762009 420.727448,240.329361 420.679596,224.906464 
	C420.601776,199.853912 412.608948,177.037125 395.409729,157.772171 
	C402.471771,139.175369 401.076752,120.315948 395.774231,101.442009 
	C395.731140,101.288612 395.562775,101.171524 395.515045,101.018150 
	C391.820526,89.135803 389.058472,88.104012 376.678925,90.560814 
	C357.417816,94.383324 340.718628,103.665436 324.082275,113.344696 
	C322.268250,114.400131 319.567566,115.340820 317.757690,114.781891 
	C292.603607,107.013733 266.694824,107.153305 240.923859,108.294914 
	C226.413818,108.937675 212.036453,112.562630 197.597473,114.832405 
	C194.771637,115.276619 192.440948,115.158966 189.565399,113.430717 
	C174.614655,104.445129 159.511520,95.517952 142.204498,91.739021 
	C135.848068,90.351112 129.241821,90.107307 122.655571,89.330536 
	C118.315598,99.127525 116.369003,108.683357 114.882736,118.491219 
	C112.871094,131.765991 115.315880,144.486465 118.011024,157.294601 
	C118.279396,158.569977 117.780769,160.488495 116.910324,161.448898 
	C105.383476,174.166992 98.437782,189.328415 95.310074,205.854553 
	C93.164803,217.189697 92.720360,228.815201 93.664772,240.646378 
	C94.945099,256.685730 97.356384,272.292053 103.049950,287.268219 
	C111.271439,308.893829 125.344299,325.783844 145.762192,336.912628 
	C163.931564,346.815857 183.585510,352.005493 204.123886,354.036102 
	C205.545349,354.176636 206.920746,354.783081 208.648422,355.265198 
	C200.768311,363.233154 196.283386,372.720215 194.937103,383.723602 
	C194.589233,386.566803 192.881805,388.488281 190.059784,389.499512 
	C173.308029,395.502258 156.665695,396.776245 140.526840,387.786896 
	C130.670456,382.296875 123.918945,373.616516 118.026672,364.221527 
	C110.818306,352.728088 100.098236,345.892426 87.363037,342.441803 
	C82.694626,341.176880 77.385124,341.623810 72.457390,342.140961 
	C66.698547,342.745361 65.035873,347.545654 69.257233,351.572510 
	C73.959686,356.058258 79.373276,359.793030 84.420502,363.924133 
	C91.557945,369.766022 96.725807,377.173370 101.043892,385.221130 
	C105.019775,392.631165 108.384796,400.438416 113.004837,407.418091 
	C121.222809,419.833252 133.452118,426.711304 147.790421,429.985413 
	C162.130188,433.259888 176.393036,432.325012 190.599808,429.034027 
	C191.210434,428.892517 191.896866,429.078339 192.771790,429.123169 
	C192.771790,443.984558 192.771790,458.771545 192.768127,473.559113 
	C102.233681,448.438629 24.521059,358.497986 34.345406,243.286057 
	C44.362846,125.809601 139.166992,46.701015 239.089508,39.069099 
	C299.691650,34.440414 353.628448,52.075024 400.153229,90.881279 
	C441.522400,125.387215 467.586975,169.606842 476.828522,222.763718 
	C487.623169,284.854126 474.521851,342.195587 437.173828,393.006714 
	C407.898407,432.835266 369.152649,460.349792 321.000000,475.439117 
	C321.000000,473.059845 321.000000,471.294189 321.000000,469.528503 
	C321.000000,444.697388 321.039581,419.866150 320.985596,395.035156 
	C320.951477,379.336151 316.022156,365.421600 306.182709,354.446045 
	C320.650787,350.755341 335.886932,347.833466 350.464325,342.946686 
	C379.623474,333.171661 400.522766,314.140503 411.058258,284.671875 
	C412.573242,280.434265 414.063385,276.187714 415.759430,271.567810 
z"/>
</svg>